<svg width="1706" height="1705" viewBox="0 0 1706 1705" fill="none" xmlns="http://www.w3.org/2000/svg">
<path d="M1590.72 967.005C1653.94 967.005 1705.2 915.752 1705.2 852.529C1705.2 789.305 1653.94 738.052 1590.72 738.052H1247.29C1184.07 738.052 1132.81 789.305 1132.81 852.529C1132.81 915.752 1184.07 967.005 1247.29 967.005H1590.72Z" fill="url(#paint0_linear_2_57)"/>
<path d="M1590.72 967.005C1653.94 967.005 1705.2 915.752 1705.2 852.529C1705.2 789.305 1653.94 738.052 1590.72 738.052H1247.29C1184.07 738.052 1132.81 789.305 1132.81 852.529C1132.81 915.752 1184.07 967.005 1247.29 967.005H1590.72Z" fill="url(#paint1_linear_2_57)"/>
<path d="M1590.72 967.005C1653.94 967.005 1705.2 915.752 1705.2 852.529C1705.2 789.305 1653.94 738.052 1590.72 738.052H1247.29C1184.07 738.052 1132.81 789.305 1132.81 852.529C1132.81 915.752 1184.07 967.005 1247.29 967.005H1590.72Z" fill="url(#paint2_linear_2_57)"/>
<path d="M458.546 967.005C521.769 967.005 573.022 915.752 573.022 852.529C573.022 789.305 521.769 738.052 458.546 738.052H115.116C51.8925 738.052 0.639587 789.305 0.639587 852.529C0.639587 915.752 51.8925 967.005 115.116 967.005H458.546Z" fill="url(#paint3_linear_2_57)"/>
<path d="M458.546 967.005C521.769 967.005 573.022 915.752 573.022 852.529C573.022 789.305 521.769 738.052 458.546 738.052H115.116C51.8925 738.052 0.639587 789.305 0.639587 852.529C0.639587 915.752 51.8925 967.005 115.116 967.005H458.546Z" fill="url(#paint4_linear_2_57)"/>
<path d="M458.546 967.005C521.769 967.005 573.022 915.752 573.022 852.529C573.022 789.305 521.769 738.052 458.546 738.052H115.116C51.8925 738.052 0.639587 789.305 0.639587 852.529C0.639587 915.752 51.8925 967.005 115.116 967.005H458.546Z" fill="url(#paint5_linear_2_57)"/>
<path d="M967.395 1246.83C967.395 1183.61 916.142 1132.36 852.918 1132.36C789.695 1132.36 738.442 1183.61 738.442 1246.83V1590.26C738.442 1653.49 789.695 1704.74 852.918 1704.74C916.142 1704.74 967.395 1653.49 967.395 1590.26V1246.83Z" fill="url(#paint6_linear_2_57)"/>
<path d="M967.395 1246.83C967.395 1183.61 916.142 1132.36 852.918 1132.36C789.695 1132.36 738.442 1183.61 738.442 1246.83V1590.26C738.442 1653.49 789.695 1704.74 852.918 1704.74C916.142 1704.74 967.395 1653.49 967.395 1590.26V1246.83Z" fill="url(#paint7_linear_2_57)"/>
<path d="M967.395 1246.83C967.395 1183.61 916.142 1132.36 852.918 1132.36C789.695 1132.36 738.442 1183.61 738.442 1246.83V1590.26C738.442 1653.49 789.695 1704.74 852.918 1704.74C916.142 1704.74 967.395 1653.49 967.395 1590.26V1246.83Z" fill="url(#paint8_linear_2_57)"/>
<path d="M967.395 114.796C967.395 51.5723 916.142 0.319397 852.918 0.319397C789.695 0.319397 738.442 51.5723 738.442 114.796V458.226C738.442 521.449 789.695 572.702 852.918 572.702C916.142 572.702 967.395 521.449 967.395 458.226V114.796Z" fill="url(#paint9_linear_2_57)"/>
<path d="M967.395 114.796C967.395 51.5723 916.142 0.319397 852.918 0.319397C789.695 0.319397 738.442 51.5723 738.442 114.796V458.226C738.442 521.449 789.695 572.702 852.918 572.702C916.142 572.702 967.395 521.449 967.395 458.226V114.796Z" fill="url(#paint10_linear_2_57)"/>
<path d="M967.395 114.796C967.395 51.5723 916.142 0.319397 852.918 0.319397C789.695 0.319397 738.442 51.5723 738.442 114.796V458.226C738.442 521.449 789.695 572.702 852.918 572.702C916.142 572.702 967.395 521.449 967.395 458.226V114.796Z" fill="url(#paint11_linear_2_57)"/>
<path d="M1455.57 411.771C1500.28 367.065 1500.28 294.583 1455.57 249.877C1410.86 205.171 1338.38 205.171 1293.68 249.877L1050.84 492.718C1006.13 537.424 1006.13 609.907 1050.84 654.613C1095.54 699.318 1168.02 699.318 1212.73 654.613L1455.57 411.771Z" fill="url(#paint12_linear_2_57)"/>
<path d="M1455.57 411.771C1500.28 367.065 1500.28 294.583 1455.57 249.877C1410.86 205.171 1338.38 205.171 1293.68 249.877L1050.84 492.718C1006.13 537.424 1006.13 609.907 1050.84 654.613C1095.54 699.318 1168.02 699.318 1212.73 654.613L1455.57 411.771Z" fill="url(#paint13_linear_2_57)"/>
<path d="M1455.57 411.771C1500.28 367.065 1500.28 294.583 1455.57 249.877C1410.86 205.171 1338.38 205.171 1293.68 249.877L1050.84 492.718C1006.13 537.424 1006.13 609.907 1050.84 654.613C1095.54 699.318 1168.02 699.318 1212.73 654.613L1455.57 411.771Z" fill="url(#paint14_linear_2_57)"/>
<path d="M655.002 1212.34C699.708 1167.63 699.708 1095.15 655.002 1050.45C610.296 1005.74 537.814 1005.74 493.108 1050.45L250.266 1293.29C205.561 1337.99 205.561 1410.47 250.266 1455.18C294.972 1499.89 367.455 1499.89 412.161 1455.18L655.002 1212.34Z" fill="url(#paint15_linear_2_57)"/>
<path d="M655.002 1212.34C699.708 1167.63 699.708 1095.15 655.002 1050.45C610.296 1005.74 537.814 1005.74 493.108 1050.45L250.266 1293.29C205.561 1337.99 205.561 1410.47 250.266 1455.18C294.972 1499.89 367.455 1499.89 412.161 1455.18L655.002 1212.34Z" fill="url(#paint16_linear_2_57)"/>
<path d="M655.002 1212.34C699.708 1167.63 699.708 1095.15 655.002 1050.45C610.296 1005.74 537.814 1005.74 493.108 1050.45L250.266 1293.29C205.561 1337.99 205.561 1410.47 250.266 1455.18C294.972 1499.89 367.455 1499.89 412.161 1455.18L655.002 1212.34Z" fill="url(#paint17_linear_2_57)"/>
<path d="M1212.68 1050.4C1167.97 1005.69 1095.49 1005.69 1050.79 1050.4C1006.08 1095.1 1006.08 1167.58 1050.79 1212.29L1293.63 1455.13C1338.33 1499.84 1410.82 1499.84 1455.52 1455.13C1500.23 1410.43 1500.23 1337.94 1455.52 1293.24L1212.68 1050.4Z" fill="url(#paint18_linear_2_57)"/>
<path d="M1212.68 1050.4C1167.97 1005.69 1095.49 1005.69 1050.79 1050.4C1006.08 1095.1 1006.08 1167.58 1050.79 1212.29L1293.63 1455.13C1338.33 1499.84 1410.82 1499.84 1455.52 1455.13C1500.23 1410.43 1500.23 1337.94 1455.52 1293.24L1212.68 1050.4Z" fill="url(#paint19_linear_2_57)"/>
<path d="M1212.68 1050.4C1167.97 1005.69 1095.49 1005.69 1050.79 1050.4C1006.08 1095.1 1006.08 1167.58 1050.79 1212.29L1293.63 1455.13C1338.33 1499.84 1410.82 1499.84 1455.52 1455.13C1500.23 1410.43 1500.23 1337.94 1455.52 1293.24L1212.68 1050.4Z" fill="url(#paint20_linear_2_57)"/>
<path d="M412.21 249.926C367.504 205.22 295.021 205.22 250.316 249.926C205.61 294.632 205.61 367.114 250.315 411.82L493.157 654.661C537.863 699.367 610.345 699.367 655.051 654.661C699.757 609.956 699.757 537.473 655.051 492.767L412.21 249.926Z" fill="url(#paint21_linear_2_57)"/>
<path d="M412.21 249.926C367.504 205.22 295.021 205.22 250.316 249.926C205.61 294.632 205.61 367.114 250.315 411.82L493.157 654.661C537.863 699.367 610.345 699.367 655.051 654.661C699.757 609.956 699.757 537.473 655.051 492.767L412.21 249.926Z" fill="url(#paint22_linear_2_57)"/>
<path d="M412.21 249.926C367.504 205.22 295.021 205.22 250.316 249.926C205.61 294.632 205.61 367.114 250.315 411.82L493.157 654.661C537.863 699.367 610.345 699.367 655.051 654.661C699.757 609.956 699.757 537.473 655.051 492.767L412.21 249.926Z" fill="url(#paint23_linear_2_57)"/>
<defs>
<linearGradient id="paint0_linear_2_57" x1="609.974" y1="545.14" x2="1339.48" y2="1584.38" gradientUnits="userSpaceOnUse">
<stop stop-color="#F653FF"/>
<stop offset="1" stop-color="white" stop-opacity="0"/>
</linearGradient>
<linearGradient id="paint1_linear_2_57" x1="1139.79" y1="357.668" x2="255.408" y2="1445.82" gradientUnits="userSpaceOnUse">
<stop stop-color="#FFAF53" stop-opacity="0"/>
<stop offset="1" stop-color="#FFAF53"/>
</linearGradient>
<linearGradient id="paint2_linear_2_57" x1="-58.403" y1="852.529" x2="1575.86" y2="1156.46" gradientUnits="userSpaceOnUse">
<stop stop-color="white" stop-opacity="0"/>
<stop offset="1" stop-color="#5DC1FF"/>
</linearGradient>
<linearGradient id="paint3_linear_2_57" x1="609.974" y1="545.14" x2="1339.48" y2="1584.38" gradientUnits="userSpaceOnUse">
<stop stop-color="#F653FF"/>
<stop offset="1" stop-color="white" stop-opacity="0"/>
</linearGradient>
<linearGradient id="paint4_linear_2_57" x1="1139.79" y1="357.668" x2="255.408" y2="1445.82" gradientUnits="userSpaceOnUse">
<stop stop-color="#FFAF53" stop-opacity="0"/>
<stop offset="1" stop-color="#FFAF53"/>
</linearGradient>
<linearGradient id="paint5_linear_2_57" x1="-58.403" y1="852.529" x2="1575.86" y2="1156.46" gradientUnits="userSpaceOnUse">
<stop stop-color="white" stop-opacity="0"/>
<stop offset="1" stop-color="#5DC1FF"/>
</linearGradient>
<linearGradient id="paint6_linear_2_57" x1="609.974" y1="545.14" x2="1339.48" y2="1584.38" gradientUnits="userSpaceOnUse">
<stop stop-color="#F653FF"/>
<stop offset="1" stop-color="white" stop-opacity="0"/>
</linearGradient>
<linearGradient id="paint7_linear_2_57" x1="1139.79" y1="357.668" x2="255.408" y2="1445.82" gradientUnits="userSpaceOnUse">
<stop stop-color="#FFAF53" stop-opacity="0"/>
<stop offset="1" stop-color="#FFAF53"/>
</linearGradient>
<linearGradient id="paint8_linear_2_57" x1="-58.403" y1="852.529" x2="1575.86" y2="1156.46" gradientUnits="userSpaceOnUse">
<stop stop-color="white" stop-opacity="0"/>
<stop offset="1" stop-color="#5DC1FF"/>
</linearGradient>
<linearGradient id="paint9_linear_2_57" x1="609.974" y1="545.14" x2="1339.48" y2="1584.38" gradientUnits="userSpaceOnUse">
<stop stop-color="#F653FF"/>
<stop offset="1" stop-color="white" stop-opacity="0"/>
</linearGradient>
<linearGradient id="paint10_linear_2_57" x1="1139.79" y1="357.668" x2="255.408" y2="1445.82" gradientUnits="userSpaceOnUse">
<stop stop-color="#FFAF53" stop-opacity="0"/>
<stop offset="1" stop-color="#FFAF53"/>
</linearGradient>
<linearGradient id="paint11_linear_2_57" x1="-58.403" y1="852.529" x2="1575.86" y2="1156.46" gradientUnits="userSpaceOnUse">
<stop stop-color="white" stop-opacity="0"/>
<stop offset="1" stop-color="#5DC1FF"/>
</linearGradient>
<linearGradient id="paint12_linear_2_57" x1="609.974" y1="545.14" x2="1339.48" y2="1584.38" gradientUnits="userSpaceOnUse">
<stop stop-color="#F653FF"/>
<stop offset="1" stop-color="white" stop-opacity="0"/>
</linearGradient>
<linearGradient id="paint13_linear_2_57" x1="1139.79" y1="357.668" x2="255.408" y2="1445.82" gradientUnits="userSpaceOnUse">
<stop stop-color="#FFAF53" stop-opacity="0"/>
<stop offset="1" stop-color="#FFAF53"/>
</linearGradient>
<linearGradient id="paint14_linear_2_57" x1="-58.403" y1="852.529" x2="1575.86" y2="1156.46" gradientUnits="userSpaceOnUse">
<stop stop-color="white" stop-opacity="0"/>
<stop offset="1" stop-color="#5DC1FF"/>
</linearGradient>
<linearGradient id="paint15_linear_2_57" x1="609.974" y1="545.14" x2="1339.48" y2="1584.38" gradientUnits="userSpaceOnUse">
<stop stop-color="#F653FF"/>
<stop offset="1" stop-color="white" stop-opacity="0"/>
</linearGradient>
<linearGradient id="paint16_linear_2_57" x1="1139.79" y1="357.668" x2="255.408" y2="1445.82" gradientUnits="userSpaceOnUse">
<stop stop-color="#FFAF53" stop-opacity="0"/>
<stop offset="1" stop-color="#FFAF53"/>
</linearGradient>
<linearGradient id="paint17_linear_2_57" x1="-58.403" y1="852.529" x2="1575.86" y2="1156.46" gradientUnits="userSpaceOnUse">
<stop stop-color="white" stop-opacity="0"/>
<stop offset="1" stop-color="#5DC1FF"/>
</linearGradient>
<linearGradient id="paint18_linear_2_57" x1="609.974" y1="545.14" x2="1339.48" y2="1584.38" gradientUnits="userSpaceOnUse">
<stop stop-color="#F653FF"/>
<stop offset="1" stop-color="white" stop-opacity="0"/>
</linearGradient>
<linearGradient id="paint19_linear_2_57" x1="1139.79" y1="357.668" x2="255.408" y2="1445.82" gradientUnits="userSpaceOnUse">
<stop stop-color="#FFAF53" stop-opacity="0"/>
<stop offset="1" stop-color="#FFAF53"/>
</linearGradient>
<linearGradient id="paint20_linear_2_57" x1="-58.403" y1="852.529" x2="1575.86" y2="1156.46" gradientUnits="userSpaceOnUse">
<stop stop-color="white" stop-opacity="0"/>
<stop offset="1" stop-color="#5DC1FF"/>
</linearGradient>
<linearGradient id="paint21_linear_2_57" x1="609.974" y1="545.14" x2="1339.48" y2="1584.38" gradientUnits="userSpaceOnUse">
<stop stop-color="#F653FF"/>
<stop offset="1" stop-color="white" stop-opacity="0"/>
</linearGradient>
<linearGradient id="paint22_linear_2_57" x1="1139.79" y1="357.668" x2="255.408" y2="1445.82" gradientUnits="userSpaceOnUse">
<stop stop-color="#FFAF53" stop-opacity="0"/>
<stop offset="1" stop-color="#FFAF53"/>
</linearGradient>
<linearGradient id="paint23_linear_2_57" x1="-58.403" y1="852.529" x2="1575.86" y2="1156.46" gradientUnits="userSpaceOnUse">
<stop stop-color="white" stop-opacity="0"/>
<stop offset="1" stop-color="#5DC1FF"/>
</linearGradient>
</defs>
</svg>
