<svg width="1706" height="1705" viewBox="0 0 1706 1705" fill="none" xmlns="http://www.w3.org/2000/svg">
<rect opacity="0.7142" width="228.953" height="572.383" rx="114.477" transform="matrix(0 -1 -1 0 1705.2 967.005)" fill="black"/>
<rect opacity="0.142857" width="228.953" height="572.383" rx="114.477" transform="matrix(0 -1 -1 0 573.022 967.005)" fill="black"/>
<rect opacity="0.4286" width="228.953" height="572.383" rx="114.477" transform="matrix(-1 0 0 1 967.395 1132.36)" fill="black"/>
<rect width="228.953" height="572.383" rx="114.477" transform="matrix(-1 0 0 1 967.395 0.319397)" fill="black"/>
<rect opacity="0.8571" width="228.953" height="572.383" rx="114.477" transform="matrix(-0.707107 -0.707107 -0.707107 0.707107 1536.52 330.824)" fill="black"/>
<rect opacity="0.2858" width="228.953" height="572.383" rx="114.477" transform="matrix(-0.707107 -0.707107 -0.707107 0.707107 735.949 1131.39)" fill="black"/>
<rect opacity="0.5714" width="228.953" height="572.383" rx="114.477" transform="matrix(-0.707107 0.707107 0.707107 0.707107 1131.73 969.449)" fill="black"/>
</svg>
