<svg width="718" height="691" viewBox="0 0 718 691" fill="none" xmlns="http://www.w3.org/2000/svg">
<path d="M717.071 437.635V377.53C717.071 367.013 708.397 360.062 698.229 362.131L614.965 380.243C603.111 382.801 596.598 389.503 596.598 399.889L596.818 577.528C597.419 584.129 594.481 588.15 588.772 589.342L562.835 594.7C529.007 601.709 512.471 619.338 512.471 645.614C512.471 672.314 532.825 690.8 561.735 690.8C590.3 690.8 624.43 669.392 624.43 624.08V476.586C624.43 469.495 624.914 468.851 631.414 467.396L705.95 451.162C712.764 449.73 717.071 444.373 717.071 437.635Z" fill="white"/>
<path d="M337.92 0.296021C524.032 0.296032 674.973 151.233 674.973 337.237C674.973 523.242 524.032 674.177 337.92 674.177C151.911 674.177 0.972656 523.242 0.972656 337.237C0.972658 151.233 151.911 0.296021 337.92 0.296021ZM597.741 354.671C584.988 357.32 577.982 364.261 577.981 375.017L578.218 558.988C578.864 565.825 575.703 569.989 569.562 571.223L541.656 576.772C505.263 584.031 487.473 602.29 487.473 629.502C487.473 632.728 487.771 635.839 488.347 638.817C598.624 583.717 674.485 469.947 674.968 338.5L597.741 354.671ZM337.92 105.821C210.138 105.821 106.705 209.253 106.705 337.135C106.705 464.915 210.138 568.346 337.92 568.346C465.805 568.346 569.238 464.915 569.238 337.135C569.238 209.253 465.805 105.821 337.92 105.821ZM425.717 505.937C399.663 519.58 369.819 527.482 337.92 527.482C306.667 527.482 276.823 519.58 250.667 505.937L317.065 406.011C324.085 407.964 330.782 409.154 337.92 409.154C345.263 409.154 352.401 407.964 358.775 406.011L425.717 505.937ZM265.9 338.485C266.649 353.407 270.747 366.8 278.971 378.035L204.568 472.556C169.629 437.985 147.672 389.991 147.672 337.135C147.672 326.516 148.759 316.015 150.39 306.043L265.9 338.485ZM525.554 306.043C527.727 316.015 528.271 326.516 528.271 337.135C528.271 389.991 506.858 437.985 471.918 472.556L397.516 378.035C405.196 366.8 409.735 353.407 409.94 338.485L525.554 306.043ZM337.92 305.516C355.617 305.516 369.539 319.438 369.539 337.135C369.539 354.508 355.617 368.651 337.92 368.651C320.546 368.651 306.623 354.508 306.623 337.135C306.623 319.438 320.546 305.516 337.92 305.516ZM314.569 269.198C301.058 273.619 289.382 282.151 280.967 293.401L168.38 251.765C195.065 197.69 247.628 158.096 309.812 149.152L314.569 269.198ZM366.572 149.152C428.653 158.096 481.215 197.69 508.106 251.765L395.313 293.401C387.103 282.151 375.326 273.619 361.814 269.198L366.572 149.152Z" fill="white"/>
</svg>
